<svg width="111" height="32" viewBox="0 0 111 32" fill="none" xmlns="http://www.w3.org/2000/svg">
<path d="M10.3379 0.187192H8.6477L5.19354 6.4335L1.89527 0.187192H0L4.14335 7.88177H6.20272L10.3379 0.187192Z" fill="black"/>
<path d="M26.8845 7.88177V6.2266H20.8459V4.81773H26.6712V3.21182H20.8459V1.84236H26.8107V0.187192H19.1721V7.88177H26.8845Z" fill="black"/>
<path d="M44.6113 2.39409C44.6113 1.7931 44.4636 1.36946 44.2011 1.03448C43.799 0.532019 43.0278 0.187192 41.9038 0.187192H36.341V7.88177H38.023V4.867H41.313L43.4873 7.88177H45.399L43.0606 4.64039C43.6596 4.54187 44.1026 4.09852 44.3241 3.71429C44.5211 3.37931 44.6113 2.91626 44.6113 2.39409ZM42.9704 2.54187C42.9704 2.66995 42.9458 2.81773 42.8473 2.98522C42.7324 3.17241 42.5191 3.27094 41.994 3.27094H38.023V1.7931H41.8956C42.4371 1.7931 42.6586 1.90148 42.8309 2.11823C42.9376 2.24631 42.9704 2.38424 42.9704 2.54187Z" fill="black"/>
<path d="M62.121 1.84236V0.187192H53.342V1.84236H56.87V7.88177H58.6012V1.84236H62.121Z" fill="black"/>
<path d="M72.7304 7.88177V0.187192H70.9993V7.88177H72.7304Z" fill="black"/>
<path d="M91.1822 7.88177V3.35961H86.2594V4.93596H89.5741C89.451 5.22168 89.0982 5.5665 88.8603 5.74384C88.3352 6.11823 87.4573 6.36453 86.686 6.36453C85.4635 6.36453 84.561 6.0197 84.077 5.37931C83.8226 5.00493 83.6831 4.55172 83.6831 4.00985C83.6831 3.46798 83.8062 3.00493 84.077 2.63054C84.5364 2 85.4061 1.63547 86.7845 1.63547C88.048 1.63547 88.8439 2.02956 89.1885 2.44335C89.3197 2.60099 89.4674 2.78818 89.492 2.91626H91.133C91.1001 2.72906 91.0427 2.46305 90.9278 2.2069C90.3043 0.837438 88.9833 0.0591131 86.7435 0.0591131C84.7497 0.0591131 83.3878 0.709359 82.6411 1.7734C82.1899 2.40394 81.9766 3.18227 81.9766 4.03941C81.9766 5.01478 82.2145 5.80296 82.6247 6.40394C83.4124 7.53695 84.8564 8 86.3579 8C88.2449 8 89.1885 7.30049 89.6315 6.867L89.6643 7.88177H91.1822Z" fill="black"/>
<path d="M105.094 0C103.297 0 102.083 0.40394 101.082 1.51724C100.442 2.2266 100.179 3.01478 100.179 3.9803C100.179 5.10345 100.548 5.96059 101.18 6.60099C102.058 7.48769 103.354 8 105.085 8C106.882 8 108.285 7.5468 109.106 6.57143C109.688 5.93103 110 5.06404 110 4C110 2.95567 109.77 2.15764 109.089 1.42857C108.162 0.443349 106.899 0 105.094 0ZM105.085 6.38424C103.888 6.38424 103.125 6.11823 102.493 5.52709C102.041 5.10345 101.902 4.63054 101.902 4.00985C101.902 3.46798 102.058 3.02463 102.386 2.62069C102.862 2.03941 103.797 1.64532 105.077 1.64532C106.431 1.64532 107.194 1.97044 107.793 2.58128C108.162 2.95567 108.277 3.49754 108.277 4.00985C108.277 4.51232 108.162 4.98522 107.826 5.37931C107.219 6.09852 106.398 6.38424 105.085 6.38424Z" fill="black"/>
<path d="M8.66713 25.8204L8.23845 25.4917C7.8057 25.8333 7.36069 26.0944 6.90344 26.2749C6.44619 26.4553 5.90729 26.5456 5.28673 26.5456C4.77232 26.5456 4.29466 26.4682 3.85374 26.3135C3.41282 26.1524 3.02905 25.9365 2.70244 25.6657C2.384 25.3886 2.13088 25.0663 1.94308 24.6989C1.75528 24.325 1.66138 23.9254 1.66138 23.5V23.4807C1.66138 23.0552 1.7512 22.6588 1.93083 22.2914C2.11863 21.924 2.37175 21.605 2.6902 21.3343C3.01681 21.0571 3.40057 20.8412 3.84149 20.6865C4.28241 20.5318 4.76008 20.4544 5.27448 20.4544C5.59293 20.4544 5.88687 20.4802 6.15633 20.5318C6.43394 20.5833 6.68706 20.6542 6.91569 20.7445C7.15248 20.8283 7.37294 20.9314 7.57707 21.0539C7.7812 21.1763 7.97717 21.3085 8.16497 21.4503L8.61814 21.0829C8.39767 20.9217 8.16905 20.7767 7.93226 20.6478C7.70363 20.5124 7.45459 20.3964 7.18514 20.2997C6.92386 20.203 6.63807 20.1289 6.3278 20.0773C6.01752 20.0258 5.6705 20 5.28673 20C4.66618 20 4.09461 20.0935 3.57204 20.2804C3.04947 20.4609 2.5963 20.7122 2.21253 21.0345C1.83693 21.3504 1.5389 21.721 1.31844 22.1464C1.10615 22.5718 1 23.023 1 23.5V23.5193C1 24.0028 1.10615 24.4572 1.31844 24.8826C1.53074 25.308 1.82469 25.6786 2.20028 25.9945C2.58405 26.3039 3.03722 26.5488 3.55979 26.7293C4.08236 26.9098 4.64985 27 5.26224 27C5.63784 27 5.98486 26.971 6.3033 26.913C6.62174 26.855 6.91569 26.7744 7.18514 26.6713C7.46276 26.5681 7.71996 26.4457 7.95675 26.3039C8.20171 26.1556 8.4385 25.9945 8.66713 25.8204Z" fill="black"/>
<path d="M24.0171 26.884L21.1878 23.9931C21.5471 23.9544 21.8778 23.8867 22.1799 23.7901C22.4902 23.6869 22.7555 23.5548 22.976 23.3936C23.2046 23.2325 23.3802 23.0424 23.5027 22.8232C23.6333 22.5976 23.6986 22.343 23.6986 22.0594V22.0401C23.6986 21.7564 23.6251 21.4986 23.4782 21.2666C23.3312 21.0281 23.123 20.825 22.8535 20.6575C22.5922 20.4834 22.2738 20.3513 21.8982 20.261C21.5226 20.1644 21.1021 20.116 20.6367 20.116H17.0358V26.884H17.6727V24.0801H20.4775L23.2087 26.884H24.0171ZM23.0617 22.0787C23.0617 22.3237 22.9964 22.5428 22.8658 22.7362C22.7433 22.9231 22.5718 23.0843 22.3514 23.2196C22.1309 23.3485 21.8655 23.4484 21.5553 23.5193C21.2532 23.5902 20.9225 23.6257 20.5632 23.6257H17.6727V20.5801H20.5999C21.3838 20.5801 21.988 20.7122 22.4126 20.9765C22.8454 21.2408 23.0617 21.6017 23.0617 22.0594V22.0787Z" fill="black"/>
<path d="M38.6612 26.884V26.4199H33.1375V23.703H38.0488V23.239H33.1375V20.5801H38.6V20.116H32.5006V26.884H38.6612Z" fill="black"/>
<path d="M55.1826 26.884L51.1898 20.0677H50.5774L46.5846 26.884H47.246L48.336 24.989H53.3944L54.4844 26.884H55.1826ZM53.1249 24.5345H48.6055L50.8713 20.6188L53.1249 24.5345Z" fill="black"/>
<path d="M68.5106 20.5801V20.116H61.8968V20.5801H64.8852V26.884H65.5221V20.5801H68.5106Z" fill="black"/>
<path d="M77.7875 26.884V20.116H77.1506V26.884H77.7875Z" fill="black"/>
<path d="M94.4129 20.116H93.7392L90.3711 26.3425L87.0152 20.116H86.3048L90.0771 26.9323H90.6405L94.4129 20.116Z" fill="black"/>
<path d="M109 26.884V26.4199H103.476V23.703H108.388V23.239H103.476V20.5801H108.939V20.116H102.839V26.884H109Z" fill="black"/>
<line y1="14.5" x2="10" y2="14.5" stroke="black"/>
<line x1="101" y1="14.5" x2="111" y2="14.5" stroke="black"/>
</svg>
